<svg aria-labelledby="aesop-:r2:" class="Icon_base__GKZ58 Icon_light__1TZsq Logo_icon__NDEf8" data-testid="data-testid-Icon" height="30" tabindex="-1" viewBox="0 0 489.7 154.3" width="80" style="height:30px;width:80px"><path d="M48.6 22.5 31.8 62.2H66L48.6 22.5zm-20 47.8c-3.2 7.4-9.6 21.7-14.9 42-1.9-.3-3.5-.9-6.6-.9-3.1 0-5 .6-7.1.9C14.3 81.2 38 28.9 49.4 0c1.3.2 2.3.5 4 .5 1.4 0 2.3-.2 3.5-.5 12.3 33.7 47.8 111.7 48.1 112.3-2.7-.5-5.5-.9-9.5-.9-4.2 0-7.2.5-10.3.9C79.6 93.1 73 79.1 69 70.3H28.6zM172.4 66.6c0-5.3 0-26.6-19.2-26.6-14 0-20.7 10.6-22.2 26.6h41.4zm-41.5 6.7c0 4.5 0 13.6 4.3 21 7.4 12.1 17.8 12.5 22.5 12.5 15.7 0 23.1-9.6 25.5-13l1.9.4c-1 4.5-1 7.1-1.1 9.6-7.1 6.7-16.8 10.5-29.8 10.5-24.4 0-39.3-15.4-39.3-40.1 0-22.1 12.2-40.7 38.5-40.7 35.8 0 35.3 31.1 35.1 39.8h-57.6zM249.6 52.1c-.6-2.4-1.6-6.4-6.2-9.6-3.4-2.4-7.8-2.7-10.4-2.7-9.8 0-14.9 5.1-14.9 12 0 9.3 9.5 12.7 15.1 14.1 14.3 3.7 25.8 6.7 25.8 22.8 0 12.2-8.5 25.8-30.8 25.8-13 0-22-5.5-23.7-6.7 2.1-3.9 3.4-10.7 3.7-12.8l1.9-.5c1.1 2.7 2.7 7.1 8.7 10.6 4 2.4 8.2 3 11.7 3 8.4 0 16.2-4 16.2-13.2 0-9.1-5.5-10.9-22.3-16.4-6.9-2.3-18.3-7.2-18.3-21.3 0-9.1 5.6-23.9 27.8-23.9 11.1 0 17.5 3.4 21.2 5.3-1.6 4.2-2.7 8-3.2 13.5h-2.3zM291.5 73.5c0 22.3 9.8 34.6 24.5 34.6 15.4 0 25.5-13.3 25.5-34.5 0-12.5-3.9-33.8-24.7-33.8-25.3 0-25.3 28.8-25.3 33.7m66.4-.5c0 25.5-17.6 41.5-42 41.5-17 0-40.8-7.7-40.8-40.6 0-25 16.7-40.6 40.8-40.6 30.4.1 42 20.1 42 39.7M399.4 49.6c-3.2 4-6.6 9.8-6.6 25.7 0 14.1 3.2 19.4 6.6 23.4 4.1 5 9.6 7.9 17 7.9 22.9 0 22.9-27.1 22.9-32.3 0-24.2-11.6-33-22-33-8.6-.1-14.2 3.6-17.9 8.3m19.9 65.1c-15.1 0-23.6-8.3-26.2-14.9 0 25.2-.2 39.8.8 54.5-2.4-.6-4.5-.9-8.4-.9-4 0-6.1.3-8.6.9 1.3-20.8 1.8-41.9 1.8-62.7 0-14.6-.3-34.3-.8-57.6 2.2.5 4.8.9 7.9.9 2.9 0 5.6-.5 7.9-.9-.6 8.8-.6 11.2-.6 14.6 2.6-4.2 9.5-15.4 27.3-15.4 16 0 35.6 11.7 35.6 40.3-.1 25.3-15.7 41.2-36.7 41.2M131.8 13.5h44.3v5h-44.3zM477.2 98.1v4.4c1.3 0 4.3 0 4.3-2.3 0-2.1-2.3-2.1-4.3-2.1m7.7 11c-.4 0-.7-.1-1.2-.1-.4 0-.8.1-1.5.1-2-2.9-3.6-4.5-4.7-5.8h-.4c0 1.8 0 3.2.2 5.8-.5 0-.7-.1-1.3-.1-.6 0-.8.1-1.1.1.1-1.3.2-2.7.2-6.2 0-3-.1-4.4-.1-5.7h2.9c2.9 0 5.9 0 5.9 2.8 0 2.5-2.7 2.9-3.9 3 .8 1.1 4.4 5.1 5.1 5.9l-.1.2zm-5.7-14.3c-4.8 0-8.5 3.8-8.5 8.6 0 4.9 3.6 8.6 8.5 8.6s8.5-3.7 8.5-8.6c.1-4.7-3.4-8.6-8.5-8.6m0-1.9c5.9 0 10.5 4.7 10.5 10.5 0 5.9-4.7 10.5-10.5 10.5s-10.5-4.6-10.5-10.5c.1-5.9 4.8-10.5 10.5-10.5"/></svg>